PathFileType	4	(X/Y/Z)	/Users/itak/Documents/Research/Walk-IL/dataset/trc/00242_00009.trc
DataRate	CameraRate	NumFrames	NumMarkers	Units	OrigDataRate	OrigDataStartFrame	OrigNumFrames
100.000000	100.000000	4	53	mm	100.000000	728	832
Frame#	Time	RPSI			LPSI			L3			STRN			T10			C7			CLAV			RBAK			LBAK			LSHO			LUPA			LAEL			LAOL			LWTS			LWPS			LFRA			LIFD			LHPS			LHTS			RSHO			RUPA			RAEL			RAOL			RWTS			RWPS			RFRA			RIFD			RHTS			RHPS			RBHD			LFHD			RFHD			LBHD			LHIP			RHIP			RASI			LASI			LKNE			LTHI			LANK			LTIP			LTOE			LMT1			LMT5			LHEE			RKNE			RTHI			RANK			RTIP			RTOE			RMT1			RMT5			RHEE			
		X1	Y1	Z1	X2	Y2	Z2	X3	Y3	Z3	X4	Y4	Z4	X5	Y5	Z5	X6	Y6	Z6	X7	Y7	Z7	X8	Y8	Z8	X9	Y9	Z9	X10	Y10	Z10	X11	Y11	Z11	X12	Y12	Z12	X13	Y13	Z13	X14	Y14	Z14	X15	Y15	Z15	X16	Y16	Z16	X17	Y17	Z17	X18	Y18	Z18	X19	Y19	Z19	X20	Y20	Z20	X21	Y21	Z21	X22	Y22	Z22	X23	Y23	Z23	X24	Y24	Z24	X25	Y25	Z25	X26	Y26	Z26	X27	Y27	Z27	X28	Y28	Z28	X29	Y29	Z29	X30	Y30	Z30	X31	Y31	Z31	X32	Y32	Z32	X33	Y33	Z33	X34	Y34	Z34	X35	Y35	Z35	X36	Y36	Z36	X37	Y37	Z37	X38	Y38	Z38	X39	Y39	Z39	X40	Y40	Z40	X41	Y41	Z41	X42	Y42	Z42	X43	Y43	Z43	X44	Y44	Z44	X45	Y45	Z45	X46	Y46	Z46	X47	Y47	Z47	X48	Y48	Z48	X49	Y49	Z49	X50	Y50	Z50	X51	Y51	Z51	X52	Y52	Z52	X53	Y53	Z53	

729	7.28	469.55810546875	1036.786010742188	631.4861450195312	526.2431030273438	1042.74267578125	737.8994750976562	506.6023254394531	1131.138671875	688.0501098632812	287.4995422363281	1305.766357421875	810.0800170898438	498.9217834472656	1257.11474609375	672.8374633789062	433.8949890136719	1516.02197265625	700.8733520507812	302.6908264160156	1424.196166992188	792.449462890625	463.6878662109375	1376.8330078125	598.7926025390625	513.9906616210938	1482.69189453125	782.1389770507812	471.4749755859375	1483.187377929688	879.0972900390625	547.1024169921875	1369.387573242188	928.6844482421875	566.7638549804688	1160.9052734375	963.4147338867188	597.0665893554688	1143.33740234375	883.3848876953125	461.7334899902344	927.6907348632812	981.2281494140625	529.8040161132812	912.4122314453125	1029.454223632812	559.5161743164062	1054.515747070312	991.9254760742188	462.88818359375	734.60791015625	997.3540649414062	513.1143188476562	824.886474609375	1040.706787109375	446.2583923339844	828.6708984375	1023.191650390625	293.9243469238281	1465.490600585938	593.8408813476562	273.9150695800781	1399.211669921875	528.4893188476562	270.8598937988281	1116.442626953125	490.9100646972656	348.2618103027344	1109.538330078125	546.8143310546875	154.6067352294922	940.8338623046875	636.6360473632812	162.4742279052734	907.2420043945312	558.8142700195312	235.0298767089844	1050.876953125	504.1338500976562	106.296257019043	760.5951538085938	688.8733520507812	91.59601593017578	834.104248046875	667.1399536132812	109.8853073120117	815.2525024414062	600.022705078125	345.3964233398438	1679.4736328125	694.3308715820312	206.0912322998047	1676.458129882812	874.12548828125	160.1661834716797	1668.79296875	784.53759765625	365.6056518554688	1684.05322265625	832.9844970703125	498.5378723144531	990.6845703125	912.6624755859375	335.0232238769531	998.4886474609375	580.9044799804688	262.0141906738281	1042.864868164062	657.4524536132812	387.6579284667969	1036.605224609375	911.0855712890625	321.9991760253906	533.5271606445312	985.6890258789062	381.158447265625	668.5750122070312	982.4717407226562	430.3467407226562	53.15639495849609	976.208740234375	385.4858703613281	312.3114013671875	987.7079467773438	219.9597625732422	74.34764862060547	1018.474243164062	259.9270324707031	63.61393737792969	950.9942016601562	324.1651306152344	51.29404449462891	1044.6728515625	463.8269653320312	63.0468635559082	904.1652221679688	315.6409912109375	509.97509765625	675.4124145507812	277.4671325683594	775.7059936523438	626.5545654296875	406.8418273925781	34.02330017089844	704.5299682617188	321.760986328125	393.2061157226562	704.0269775390625	233.1840515136719	42.1156120300293	834.3998413085938	303.3105163574219	38.94679260253906	847.8193359375	296.8430786132812	36.45263290405273	728.1361694335938	486.990234375	33.45415878295898	729.0628662109375	
730	7.29	468.1362609863281	1036.895141601562	634.0651245117188	524.0656127929688	1042.899658203125	740.8536987304688	504.6692199707031	1131.367431640625	690.8697509765625	284.6697998046875	1305.771118164062	811.5620727539062	497.1250305175781	1257.327514648438	675.5992431640625	431.7084045410156	1516.192260742188	703.4646606445312	299.901123046875	1424.20849609375	794.1212768554688	462.1973876953125	1377.112670898438	601.4588623046875	511.2627258300781	1482.857421875	785.2743530273438	468.0764465332031	1483.250610351562	881.90576171875	543.3077392578125	1369.493286132812	932.14453125	562.4769287109375	1161.071411132812	967.4607543945312	593.5654907226562	1143.237548828125	887.7625732421875	455.5084228515625	928.8048095703125	984.8990478515625	523.1757202148438	912.998779296875	1033.83251953125	554.3464965820312	1054.773559570312	996.1920776367188	454.6383056640625	735.8988647460938	1001.8798828125	505.5188293457031	825.7200317382812	1045.324829101562	438.8319091796875	830.0975952148438	1027.205078125	292.3177795410156	1465.618530273438	595.5338134765625	272.7852783203125	1399.390502929688	530.0127563476562	270.1746826171875	1116.6103515625	492.3851623535156	347.2257080078125	1109.763916015625	548.740966796875	153.5426330566406	939.8732299804688	636.43408203125	162.1399688720703	906.65478515625	558.378173828125	234.5218658447266	1050.905395507812	505.041259765625	105.7908706665039	759.0761108398438	687.324462890625	91.12255096435547	832.6699829101562	666.1031494140625	109.6587829589844	814.3479614257812	598.7955932617188	343.0865478515625	1679.536254882812	696.4878540039062	202.8730010986328	1676.411865234375	875.5760498046875	157.3980407714844	1668.765625	785.7326049804688	362.5977478027344	1684.056762695312	835.2468872070312	495.5155639648438	991.0012817382812	915.4595947265625	333.9511413574219	998.4813232421875	582.5873413085938	260.6119995117188	1042.85888671875	658.6906127929688	384.3197021484375	1036.636474609375	912.9677124023438	316.5067443847656	534.3215942382812	987.1974487304688	376.3308410644531	669.1519165039062	984.4945678710938	418.0208129882812	52.20049285888672	981.0338134765625	376.5851440429688	312.1157836914062	991.0415649414062	206.8121490478516	75.61106109619141	1017.738220214844	248.5065612792969	64.66731262207031	951.3200073242188	309.95166015625	51.12962341308594	1046.455200195312	453.4483032226562	61.85615921020508	909.8504028320312	315.4126892089844	510.0098266601562	675.8898315429688	276.5693359375	775.6961669921875	627.5741577148438	406.8916625976562	34.0701789855957	704.60107421875	321.63427734375	393.2040710449219	704.3018188476562	233.1130218505859	42.08746719360352	834.3872680664062	303.1836853027344	38.98306274414062	847.7595825195312	296.8460388183594	36.42457580566406	728.07470703125	486.978515625	33.50271224975586	729.1206665039062	
731	7.3	466.7040100097656	1036.99267578125	636.6790771484375	521.8883666992188	1043.021606445312	743.8451538085938	502.7528991699219	1131.570556640625	693.7166748046875	281.8774108886719	1305.788452148438	813.0478515625	495.3329162597656	1257.510986328125	678.3838500976562	429.583251953125	1516.347778320312	706.0537109375	297.1759033203125	1424.217895507812	795.781005859375	460.776123046875	1377.3701171875	604.14111328125	508.5952758789062	1482.989013671875	788.4061889648438	464.733642578125	1483.288452148438	884.7041625976562	539.540283203125	1369.558959960938	935.5884399414062	558.18994140625	1161.1953125	971.4754028320312	590.0018310546875	1143.105590820312	892.1118774414062	449.23681640625	929.884765625	988.4498901367188	516.5706787109375	913.5559692382812	1038.126342773438	549.1565551757812	1054.997802734375	1000.40380859375	446.4926147460938	737.1174926757812	1006.292358398438	497.9718017578125	826.5215454101562	1049.837524414062	431.4531555175781	831.4698486328125	1031.118530273438	290.77880859375	1465.741943359375	597.2084350585938	271.7262268066406	1399.561889648438	531.5226440429688	269.5935363769531	1116.796997070312	493.7803649902344	346.31103515625	1110.007080078125	550.5936279296875	152.6963653564453	938.8118896484375	636.088623046875	162.0298156738281	906.0033569335938	557.7931518554688	234.1516265869141	1050.954223632812	505.8836364746094	105.6522369384766	757.390380859375	685.5289916992188	90.96083831787109	831.1729736328125	664.9338989257812	109.7175140380859	813.3436279296875	597.3582153320312	340.8499755859375	1679.601318359375	698.6575317382812	199.7195129394531	1676.347045898438	877.0305786132812	154.7120208740234	1668.7236328125	786.926513671875	359.6514587402344	1684.040283203125	837.52001953125	492.5025634765625	991.2697143554688	918.2706298828125	332.8378601074219	998.4907836914062	584.3485107421875	259.1801147460938	1042.84716796875	659.9375	381.0155334472656	1036.635131835938	914.9059448242188	311.1811218261719	534.9990844726562	988.55615234375	371.6433715820312	669.62744140625	986.4244995117188	406.2900390625	51.32241058349609	985.1712036132812	368.0091857910156	311.9041748046875	993.9645385742188	194.4131011962891	76.68521118164062	1016.332763671875	237.8094177246094	65.620849609375	950.9939575195312	296.4410095214844	50.89105606079102	1047.51416015625	443.6387329101562	60.81367874145508	914.9102172851562	315.1756591796875	510.0656433105469	676.3652954101562	275.6852416992188	775.6954345703125	628.5836791992188	406.9386291503906	34.12626647949219	704.67626953125	321.4794921875	393.2164611816406	704.5879516601562	233.0228271484375	42.04540634155273	834.3750610351562	303.0799255371094	39.01525497436523	847.6945190429688	296.8473205566406	36.38988494873047	728.0095825195312	486.9617309570312	33.57029342651367	729.1846923828125	
732	7.31	465.2620849609375	1037.087280273438	639.3287353515625	519.7207641601562	1043.113403320312	746.87451171875	500.8489379882812	1131.745361328125	696.5953369140625	279.1318664550781	1305.813842773438	814.5411376953125	493.5456237792969	1257.663330078125	681.1945190429688	427.5177917480469	1516.486450195312	708.6419677734375	294.5137634277344	1424.23046875	797.428466796875	459.4211730957031	1377.602661132812	606.8419189453125	505.9909057617188	1483.086791992188	791.5338745117188	461.4486389160156	1483.305053710938	887.49462890625	535.8028564453125	1369.589111328125	939.0140991210938	553.90771484375	1161.279174804688	975.4505615234375	586.36669921875	1142.942993164062	896.4225463867188	442.9199829101562	930.929931640625	991.8786010742188	510.0014343261719	914.0849609375	1042.33056640625	543.94921875	1055.192260742188	1004.551879882812	438.4763793945312	738.2643432617188	1010.5771484375	490.4959106445312	827.2891235351562	1054.234497070312	424.1539306640625	832.779052734375	1034.928588867188	289.3220520019531	1465.866455078125	598.8697509765625	270.7417297363281	1399.725830078125	533.0239868164062	269.1165161132812	1117.002807617188	495.0991821289062	345.5162658691406	1110.268676757812	552.3728637695312	152.0667877197266	937.6622924804688	635.60693359375	162.1301879882812	905.3137817382812	557.0839233398438	233.9140625	1051.024658203125	506.6600341796875	105.8486938476562	755.568115234375	683.4978637695312	91.06356811523438	829.6240234375	663.6227416992188	110.050407409668	812.25439453125	595.7302856445312	338.6866760253906	1679.671508789062	700.8366088867188	196.6368255615234	1676.263427734375	878.4878540039062	152.1082000732422	1668.670776367188	788.1205444335938	356.7677001953125	1684.008666992188	839.7996215820312	489.4796447753906	991.485107421875	921.1063232421875	331.69189453125	998.529052734375	586.167724609375	257.7103881835938	1042.842407226562	661.1924438476562	377.744873046875	1036.637451171875	916.9238891601562	306.0120544433594	535.5489501953125	989.7527465820312	367.0914306640625	669.985107421875	988.25341796875	395.2119445800781	50.50342559814453	988.6399536132812	359.796630859375	311.6650695800781	996.4812622070312	182.8163146972656	77.59181976318359	1014.331298828125	227.8704528808594	66.47419738769531	950.0848388671875	283.7106628417969	50.61318588256836	1047.924682617188	434.4434509277344	59.89209747314453	919.3621826171875	314.9144897460938	510.1371459960938	676.8461303710938	274.8084716796875	775.7035522460938	629.5927124023438	406.97998046875	34.19366073608398	704.7542114257812	321.282958984375	393.2420043945312	704.8929443359375	232.9154663085938	41.98970413208008	834.3619384765625	302.9970092773438	39.04158782958984	847.6229858398438	296.8446960449219	36.34748077392578	727.9419555664062	486.9419860839844	33.66111755371094	729.2547607421875	
